/* XPM */
static char *result[] = {
/* columns rows colors chars-per-pixel */
"100 100 61 1 ",
"  c #ED4B06",
". c #EF4B09",
"X c #F04507",
"o c #F24109",
"O c #F24A0D",
"+ c #E75504",
"@ c #E95405",
"# c #E85A07",
"$ c #EE560C",
"% c #EA5D0A",
"& c #F1520E",
"* c #F34D11",
"= c #EF5A12",
"- c #F25313",
"; c #F25B14",
": c #F35618",
"> c #F35C1A",
", c #EB630E",
"< c #ED6512",
"1 c #ED6D15",
"2 c #EF6E19",
"3 c #F16216",
"4 c #F06917",
"5 c #F3631C",
"6 c #F26B1B",
"7 c #EE7017",
"8 c #EF741B",
"9 c #EF781D",
"0 c #F1731D",
"q c #F0791F",
"w c #F46621",
"e c #F46B23",
"r c #F66F28",
"t c #F47324",
"y c #F27C22",
"u c #F67429",
"i c #F67C2C",
"p c #F77F30",
"a c #F28225",
"s c #F4852A",
"d c #F48C2C",
"f c #F5902F",
"g c #F78431",
"h c #F88433",
"j c #F78C32",
"k c #F88C35",
"l c #F98E38",
"z c #F79432",
"x c #F89236",
"c c #F79836",
"v c #F89937",
"b c #F99439",
"n c #F99D3A",
"m c #FAA23E",
"M c #FB9E41",
"N c #FBA641",
"B c #FCAC45",
"V c #FEAF48",
"C c #FDB047",
"Z c #FEB44B",
"A c None",
/* pixels */
"AAAAAAAAAAAAAAAAAAAAAAAAAAAAAAAAAAAAAAAAAAAAAAAAAAAAAAAAAAAAAAAAAAAAAAAAAAAAAAAAAAAAAAAAAAAAAAAAAAAA",
"AAAAAAAAAAAAAAAAAAAAAAAAAAAAAAAAAAAAAAAAAAAAAAAAAAAAAAAAAAAAAAAAAAAAAAAAAAAAAAAAAAAAAAAAAAAAAAAAAAAA",
"AAAAAAAAAAAAAAAAAAAAAAAAAAAAAAAAAAAAAAAAAAAAAAAAAAAAAAAAAAAAAAAAAAAAAAAAAAAAAAAAAAAAAAAAAAAAAAAAAAAA",
"AAAAAAAAAAAAAAAAAAAAAAAAAAAAAAAAAAAAAAAAAAAAAAAAAAAAAAAAAAAAAAAAAAAAAAAAAAAAAAAAAAAAAAAAAAAAAAAAAAAA",
"AAAAAAAAAAAAAAAAAAAAAAAAAAAAAAAAAAAAAAAAAVNbhu:*:--===-&;AAAAAAAAAAAAAAAAAAAAAAAAAAAAAAAAAAAAAAAAAAA",
"AAAAAAAAAAAAAAAAAAAAAAAAAAAAAAAAAAAAAZZZhr>wtijdkkxxjjjdyu6;;38AAAAAAAAAAAAAAAAAAAAAAAAAAAAAAAAAAAAA",
"AAAAAAAAAAAAAAAAAAAAAAAAAAAAAAAAAAZZNlrrujnnnnnmmnnnnnvvccxkst5360qAAAAAAAAAAAAAAAAAAAAAAAAAAAAAAAAA",
"AAAAAAAAAAAAAAAAAAAAAAAAAAAAAAAZZZMpeilMmmmnmmnmnnnvvvvvccccczxst550qyAAAAAAAAAAAAAAAAAAAAAAAAAAAAAA",
"AAAAAAAAAAAAAAAAAAAAAAAAAAAAAZZZNirgnmmmmmmnmnmnnnnvcnvvccxzzfzzffa550taAAAAAAAAAAAAAAAAAAAAAAAAAAAA",
"AAAAAAAAAAAAAAAAAAAAAAAAAAAZZZNprknNNmmmmmnmnnvjgiyrw6ewrygjfxzffzfja53qaaAAAAAAAAAAAAAAAAAAAAAAAAAA",
"AAAAAAAAAAAAAAAAAAAAAAAAAAZZZnrgnNNNmmmNmmcju5*OOooooooooOOO:6ysdfdjddy35aaAAAAAAAAAAAAAAAAAAAAAAAAA",
"AAAAAAAAAAAAAAAAAAAAAAAAZZZNpunmNNNnNmnngw:Oooooooooooooooooooo*>6gdjddg65qssAAAAAAAAAAAAAAAAAAAAAAA",
"AAAAAAAAAAAAAAAAAAAAAAAZZZMrgmmBNNNmnbs:OoooooooooooooooooooooooooO5ysdddy>0asAAAAAAAAAAAAAAAAAAAAAA",
"AAAAAAAAAAAAAAAAAAAAAZZZZMrbBmmmNmmci:ooooooooooooooooooooooooooooooO>qsdsy56asdAAAAAAAAAAAAAAAAAAAA",
"AAAAAAAAAAAAAAAAAAAAZZZVhrnNBmNmmng:XoooooooooooXXooooooooooooooooooooO>ysss65sddAAAAAAAAAAAAAAAAAAA",
"AAAAAAAAAAAAAAAAAAAZZZVptMNNNNmmxeOoooooooooooooX  ooooooooooooooooooooX*6saa65sddAAAAAAAAAAAAAAAAAA",
"AAAAAAAAAAAAAAAAAAZZZVpumNNBmmngooooooooooooooooo +@Xooooooooooooooooooooo&qsa65sddAAAAAAAAAAAAAAAAA",
"AAAAAAAAAAAAAAAAAZZZZprnBNmmmmu*oooooooooooooooooX+++Xooooooooooooooooooooo-0sa55ddjAAAAAAAAAAAAAAAA",
"AAAAAAAAAAAAAAAAZZZZhenNNmNNneOooooooooooooooooooo +@@XoooooooooooooooooooooO6aa50ddfAAAAAAAAAAAAAAA",
"AAAAAAAAAAAAAAACCCCk5bBNNNmn5ooooooooooooooooooooo.####XooooooooooooooooooooXX5qy>ydfxAAAAAAAAAAAAAA",
"AAAAAAAAAAAAAABBVNn>kNNNmmn5ooooooooooooooooooooooX##,#@ooooooooooooooooooooooO5yq>azzfAAAAAAAAAAAAA",
"AAAAAAAAAAAAANBBVNwpNNBmmnwoooooooooooooooooooooooX#%%%#Xooooooooooooooooooooooo6q65dzzAAAAAAAAAAAAA",
"AAAAAAAAAAAAABBBNi5mmBmmnrooooooooooooooooooooooooX#%%##@oooooooooooooooooooooooO0q3tfzvAAAAAAAAAAAA",
"AAAAAAAAAAAANNBBk:xmBmmmioooooooooooooooooooooooooO,,,,,%ooooooooooooooooooooooooO00:szzzAAAAAAAAAAA",
"AAAAAAAAAAANNNNm>umNmmmk*ooooooooooooooooooooooooo&,,,,,,Ooooooooooooooooooooooooo-066zbcAAAAAAAAAAA",
"AAAAAAAAAAAmmNNi>bBmmmn5oooooooooooooooooooooooooo$,,,,,,&ooooooooooooXoooooooooooo30-szcvAAAAAAAAAA",
"AAAAAAAAAAmmmNb:immmmmiooooooooooooooooooooooooooX,,,,,,,%oooooooooooooooooooooooooO645zvvvAAAAAAAAA",
"AAAAAAAAAnmmmNu-nmNmmx*oooooooooooooooooooooooooo&,1,11,1,oooooooooooooooooooooooooo-0;dvvvAAAAAAAAA",
"AAAAAAAAAnmmmz*ummmmmwooooooooooooooooooooooooooX,1,,1111,ooooX&$$ooooooooooooooooooo44evvvvAAAAAAAA",
"AAAAAAAAnnvmmu*xmmmmkOoooooooooooooooooooooooooo&1117,1,14Xoo&<11&ooooooooooooooooooo&6;knvnAAAAAAAA",
"AAAAAAAAnnnnz>>nNmmnwooooooooooooooooooooooooooO141111741,XO,111=ooooooooooooooooooooo3-ynnnAAAAAAAA",
"AAAAAAAvvvnns*immmmx*oooooooooooooooooooooooooo,111117744,O<4714Xooooooooooooooooooooo&45vnnnAAAAAAA",
"AAAAAAAvvvnv5*jmmmnroooooooooooooooooooooooooo$8777777777<477771ooooooooooooooooooooooo;;xvvmAAAAAAA",
"AAAAAAAvvvvx--nmmmb:ooooooooooooooooooooooooo&488778877871787773ooooooooooooooooooooooo$-snmmAAAAAAA",
"AAAAAAzzzzviOrmmmnpoooooooooooooooooooooooooO488888888880888878<oooooooooooooooooooooooO3tvnnmAAAAAA",
"AAAAAAzzzvv5ognmmn>ooooooooooooooooooooooooO48988888888888888083oooooooooooooooooooooooX;>nmmmAAAAAA",
"AAAAAAxzzvz>Okmmmv>oooooooooooooooooooooooX3999999q999q999998994oooooooooooooooooooooooo&;cmmmAAAAAA",
"AAAAAxffzzd&-xmnnxOooooooooooooooooooooooo3q999qqqqq99qqqqqqqqq0OXooooooooooooooooooooooO-kmmmmAAAAA",
"AAAAAffxzzio>vmnmhooooooooooooooooooooooo;qqqq99qqqqqqqqqqqqqqqq;oooooooooooooooooooooooO&dmmNmAAAAA",
"AAAAAdffffto5vnnntoooooooooooooooooooooo&qqqqaa9qqaqqqaqaqyqaqyq6oooooooooooooooooooooooO&immmNAAAAA",
"AAAAAffdff5o5nmnn5oooooooooooooooooooooO6yaqa9a9aqqaayyyqa9aaa9aq-oooooooooooooooooooooooOemmBmAAAAA",
"AAAAddfffj5o5mnnv5ooooooooooooooooooooo4ayaaaaaaaaaaayaaaaa9a9aaa6XooooooooooooooooooooooXtmNNBAAAAA",
"AAAAddsfjd*oemnnb>oooooooooooooooooooo-aaaaaaaaaaaaaaqyaaaaaaaaaay:ooooooooooooooooooooooOwmNNNAAAAA",
"AAAAdsddddOo6nnnx-oooooooooooooooooooO0aaaaaaaaaaaaaaasaaaaaaaaaaayOoooooooooooooooooooooowNNNNAAAAA",
"AAAAdddddsOo6nnnf-ooooooooooooooooooo*aaaaaadaaaaadaadyyaadaaadaaaa3oooooooooooooooooooooowmBNBAAAAA",
"AAAAaddadsOO5mzvj-ooooooooooooooooooOeadadadaddaaaadsa66ddaaaaaddddyooooooooooooooooooooooeNNBBnAAAA",
"AAAAadaddyOO5vvvk-oooooooooooooooooo>ssddadadaadadddsyO3adadadddaasd5oooooooooooooooooooootNBmBsAAAA",
"AAAAaaaddaOO>vnvk-ooooooooooooooooooyddsddddddddddada:o%addddadddddsa*ooooooooooooooooooooiBBBBsAAAA",
"AAAAaaadadO&:xccf>ooooooooooooooooo>dddddddddddddddd5ooOissddsddddddd6oooooooooooooooooooosBBNViAAAA",
"AAAAaaaadaO&-dvcx5oooooooooooooooooyddfffdfddfffffd0oooOtdffffffdfffdaOoooooooooooooooooo*lNBBVuAAAA",
"AAAAaaaaas-&Osccz5ooooooooooooooooOaffffffffffffffa-oooo>fffffffffffxd5oooooooooooooooooo*nBBBVuAAAA",
"AAAAaaaaaa;O&uczbeoooooooooooooooo3fffffffzfffzzxd>XooooOsffxfffffzffdiXooooooooooooooooo:NBBCNuAAAA",
"AAAAaaaaaa5O-5zzzyOoooooooooooooooezzzzzzzzzzzzzfyoooooootfxfzzzfcffzzd-oooooooooooooooooeNVVVmpAAAA",
"AAAAqaaaaa6o3-zzzsOooooooooooooooouzzzzczzzzzzzzd>ooooooo:fxzzzzfczzzzj>ooooooooooooooooogNVVVnkAAAA",
"AAAAyqaaaa0o;&szzx*ooooooooooooooodzzzcvvzzzzzvzgOooooooooycvzzzcczzczz6ooooooooooooooooOnZVVVblAAAA",
"AAAAqaaqaaqO;-ezzx5ooooooooooooooOfvccczvvvvvvzzyooooooooo3zvvvvcvvvvvvuoooooooooooooooo>mVVVVhMAAAA",
"AAAAqqqyqaq-&3;fffyooooooooooooooOkvvvvvnnzvvvvveoooooooooOivvvvvvvvvvvsooooooooooooooooiBCCCViNAAAA",
"AAAAqqayqaa;O6*yxfd-ooooooooooooo*xvvvvmznmfsnnvroooooooooo5vvvnmvvvvmndoooooooooooooooobVCCCNpZAAAA",
"AAAAAqqqyqa4O4-5fff5oooooooooooooOknmvvmnnnt5vnvsooooooooooosnmvvvnnmvmjOoooooooooooooowBVVZZlkAAAAA",
"AAAAAqqqqaa0O;6*sffi*ooooooooooooOjnvmvmmnv>ounmk*oooooooooo5vnmmnmnvmvdOooooooooooooookVCVVViNAAAAA",
"AAAAAqqqqqaq-O0-5ffd>ooooooooooooopmmmmvmmx-oOinn5oooooooooo-kmnmmmnmnmgOooooooooooooo>BVZVZNpZAAAAA",
"AAAAA0qqqqqa4O66*yfdyoooooooooooooemmmmmmmkoooOrvj*ooooooooooimmmmmmmmmpoooooooooooooohVVZZZlbZAAAAA",
"AAAAAq8qqqqq0*-q-5ddd;oooooooooooo>nmmmmmmhooooo:i>oooooooooo>mmmmmmNmNuooooooooooooo>NVVZVBiBZAAAAA",
"AAAAAA80qqqqq;X00OrddyooooooooooooOcmBmmmmgoooooooooooooooooo*nmNNNNNNMwoooooooooooo*lVZZVZMpZAAAAAA",
"AAAAAA0q99qqq0O;q;-ads6XooooooooooorNNNNNmjoooooooooooooooooo*lNNNNNNNn-oooooooooooorNZVZZVuMZAAAAAA",
"AAAAAA88898qqq;O0yO5ssa*ooooooooooo*bNBNBBkoooooooooooooooooo*MNNNBNBNioooooooooooo*MZZZZZMpZAAAAAAA",
"AAAAAAA08089qq6O;a0O6dd0OoooooooooooeNNBNVn*ooooooooooooooooo*MBVVBNNn:oooooooooooohVZZZZViMZAAAAAAA",
"AAAAAAA788888qq;O6a5*yss5Ooooooooooo*hVVVNNwooooooooooooooooo:NVVNVVVioooooooooooorBVZZZZbpVZAAAAAAA",
"AAAAAAAA788899q0O-ya;-ysa;ooooooooooo-bNVVViooooooooooooooooopVVVVNVl*ooooooooooowNVZZZZBrZZAAAAAAAA",
"AAAAAAAA7888888q4o5ay--ysa-ooooooooooo>nVCVn*ooooooooooooooo*MVVVVZb:ooooooooooo>MZZZZVVpMZZAAAAAAAA",
"AAAAAAAAA87888890-O0su&>qsq-ooooooooooo:bVZVioooooooooooooooiVVVZVb:ooooooooooo:MVZZZZZMuVZAAAAAAAAA",
"AAAAAAAAA777800800O&ysy*-qa0Oooooooooooo*gNZM:ooooooooooooowNVVVNs*ooooooooooo:bVVZZZZVrNZZAAAAAAAAA",
"AAAAAAAAAA7078888q4X;sdt--0a0-Oooooooooooo>lNkOooooooooooo*MZVNM>Oooooooooooo:MVZZZZVVpVZZAAAAAAAAAA",
"AAAAAAAAAA17788888q3X5sda-*6yt3ooooooooooooo>eOooooooooooo>uue:ooooooooooooo>MVVZZZZVrMZZZAAAAAAAAAA",
"AAAAAAAAAAA778880880;o6dds3O3qq5OoooooooooooooooooooooooooooooooooooooooooorNVZZZZZZhuZZZAAAAAAAAAAA",
"AAAAAAAAAAA1171888800;O6djd6O-6q0&ooooooooooooooooooooooooooooooooooooooo*pNZZZZZZVhrVZZAAAAAAAAAAAA",
"AAAAAAAAAAAA1777888880&O6dfda>O;004Ooooooooooooooooooooooooooooooooooooo>lVVZZZZZZhrZZZZAAAAAAAAAAAA",
"AAAAAAAAAAAAA1777788880&O6dffdt*O304;Ooooooooooooooooooooooooooooooooo*pBVZZZZZZZhrVZZZAAAAAAAAAAAAA",
"AAAAAAAAAAAAAA1777788880:o5gzzfg5*O347-Ooooooooooooooooooooooooooooo*rMVVZZZZZZNrpVZZZAAAAAAAAAAAAAA",
"AAAAAAAAAAAAAA111787888q0>X>azzzbd5&O&363*Oooooooooooooooooooooooo*uMBVVVZZZZZMrpVZZZAAAAAAAAAAAAAAA",
"AAAAAAAAAAAAAAA1177778088q4OOtdzcczkt;Oo&33$&&XooooooooooooooooOwpnBVVVZZZZZVh>kVZZZZAAAAAAAAAAAAAAA",
"AAAAAAAAAAAAAAAA1177788888q4&O5dzzvvvbdt>*OOOO&OOOXOoooooooO*>pcNBZCZZZZZZZMrenCVZZZAAAAAAAAAAAAAAAA",
"AAAAAAAAAAAAAAAAA4177780889q03O*tfvzvvnnvxgt55:--OooO**>5eijnNBBVBZCVZZZZNp:iNVBZZZAAAAAAAAAAAAAAAAA",
"AAAAAAAAAAAAAAAAAA11777788880q6-O-uxvnnmnmnmmnbbxkkxkbnnNNVNVZVVBZBZCZZBhwebBBVVZZAAAAAAAAAAAAAAAAAA",
"AAAAAAAAAAAAAAAAAAA77777788809qq4&O-ukvnnmnmmmmBmmNBmBBmNNVVNVVVZZZZBNp:whNBBBBVVAAAAAAAAAAAAAAAAAAA",
"AAAAAAAAAAAAAAAAAAAA74777788988qq06-O*6icnmmmmmmBNmNBBBBNVVVVVZVVBNkr;wgnNNNBNBAAAAAAAAAAAAAAAAAAAAA",
"AAAAAAAAAAAAAAAAAAAAAA4777888989qqqq0--O*egxvmmmNNBNNVNNBVBVVBNnku-:ejmmmNNNBBAAAAAAAAAAAAAAAAAAAAAA",
"AAAAAAAAAAAAAAAAAAAAAAA777778808qqqqaq003Oo*>5ugkxnmNNNmnnxgir>--esxnnmmmNmNNAAAAAAAAAAAAAAAAAAAAAAA",
"AAAAAAAAAAAAAAAAAAAAAAAA7787888899qqqqaqyy02;--*O*********-:>5yjxbnnnmnmMNNAAAAAAAAAAAAAAAAAAAAAAAAA",
"AAAAAAAAAAAAAAAAAAAAAAAAAA177878089qqqqyayyaaayqyt0tttttyagdfzzvvvvvvnnnMVAAAAAAAAAAAAAAAAAAAAAAAAAA",
"AAAAAAAAAAAAAAAAAAAAAAAAAAAA18888890qqqq9aayaaaaasdaadddfffxxzzzzvvvvnnmAAAAAAAAAAAAAAAAAAAAAAAAAAAA",
"AAAAAAAAAAAAAAAAAAAAAAAAAAAAAA7788889qqq9qa9aaaaasadddddddffffzzvzvvvvAAAAAAAAAAAAAAAAAAAAAAAAAAAAAA",
"AAAAAAAAAAAAAAAAAAAAAAAAAAAAAAAA888899qqyaqaayaaaaaddddddfdffffxzzvvAAAAAAAAAAAAAAAAAAAAAAAAAAAAAAAA",
"AAAAAAAAAAAAAAAAAAAAAAAAAAAAAAAAAAA8889q99qqa9aaaaaaaaddddfdfffxzAAAAAAAAAAAAAAAAAAAAAAAAAAAAAAAAAAA",
"AAAAAAAAAAAAAAAAAAAAAAAAAAAAAAAAAAAAAA99qqqaaayaaaadadadddddffAAAAAAAAAAAAAAAAAAAAAAAAAAAAAAAAAAAAAA",
"AAAAAAAAAAAAAAAAAAAAAAAAAAAAAAAAAAAAAAAAAAA999aaaaaaaaadsAAAAAAAAAAAAAAAAAAAAAAAAAAAAAAAAAAAAAAAAAAA",
"AAAAAAAAAAAAAAAAAAAAAAAAAAAAAAAAAAAAAAAAAAAAAAAAAAAAAAAAAAAAAAAAAAAAAAAAAAAAAAAAAAAAAAAAAAAAAAAAAAAA",
"AAAAAAAAAAAAAAAAAAAAAAAAAAAAAAAAAAAAAAAAAAAAAAAAAAAAAAAAAAAAAAAAAAAAAAAAAAAAAAAAAAAAAAAAAAAAAAAAAAAA",
"AAAAAAAAAAAAAAAAAAAAAAAAAAAAAAAAAAAAAAAAAAAAAAAAAAAAAAAAAAAAAAAAAAAAAAAAAAAAAAAAAAAAAAAAAAAAAAAAAAAA",
"AAAAAAAAAAAAAAAAAAAAAAAAAAAAAAAAAAAAAAAAAAAAAAAAAAAAAAAAAAAAAAAAAAAAAAAAAAAAAAAAAAAAAAAAAAAAAAAAAAAA"
};
