/* XPM */
static char *result[] = {
/* columns rows colors chars-per-pixel */
"200 50 2 1 ",
"  c black",
". c #188CC4",
/* pixels */
"........................................................................................................................................................................................................",
"........................................................................................................................................................................................................",
"........................................................................................................................................................................................................",
"........................................................................................................................................................................................................",
"........................................................................................................................................................................................................",
".....                                                                                                                                                                                              .....",
".....                                                                                                                                                                                              .....",
".....                                                                                                                                                                                              .....",
".....                                                                                                                                                                                              .....",
".....                                                                                                                                                                                              .....",
".....                                                                                                                                                                                              .....",
".....                                                                                                                                                                                              .....",
".....                                                                                                                                                                                              .....",
".....                                                                                                                                                                                              .....",
".....                                                                                                                                                                                              .....",
".....                                                                                                                                                                                              .....",
".....                                                                                                                                                                                              .....",
".....                                                                                                                                                                                              .....",
".....                                                                                                                                                                                              .....",
".....                                                                                                                                                                                              .....",
".....                                                                                                                                                                                              .....",
".....                                                                                                                                                                                              .....",
".....                                                                                                                                                                                              .....",
".....                                                                                                                                                                                              .....",
".....                                                                                                                                                                                              .....",
".....                                                                                                                                                                                              .....",
".....                                                                                                                                                                                              .....",
".....                                                                                                                                                                                              .....",
".....                                                                                                                                                                                              .....",
".....                                                                                                                                                                                              .....",
".....                                                                                                                                                                                              .....",
".....                                                                                                                                                                                              .....",
".....                                                                                                                                                                                              .....",
".....                                                                                                                                                                                              .....",
".....                                                                                                                                                                                              .....",
".....                                                                                                                                                                                              .....",
".....                                                                                                                                                                                              .....",
".....                                                                                                                                                                                              .....",
".....                                                                                                                                                                                              .....",
".....                                                                                                                                                                                              .....",
".....                                                                                                                                                                                              .....",
".....                                                                                                                                                                                              .....",
".....                                                                                                                                                                                              .....",
".....                                                                                                                                                                                              .....",
".....                                                                                                                                                                                              .....",
"........................................................................................................................................................................................................",
"........................................................................................................................................................................................................",
"........................................................................................................................................................................................................",
"........................................................................................................................................................................................................",
"........................................................................................................................................................................................................"
};
